<svg width="460" height="149" viewBox="0 0 460 149" fill="none" xmlns="http://www.w3.org/2000/svg">
<g filter="url(#filter0_f_78_641)">
<path fill-rule="evenodd" clip-rule="evenodd" d="M149.23 59.58V52.5H157.254V59.58H149.23ZM149.23 95.865V64.005H157.254V95.865H149.23ZM317.965 59.58V52.5H325.989V59.58H317.965ZM317.965 95.865V64.005H325.989V95.865H317.965ZM407.609 95.8653C405.406 96.2783 403.243 96.4553 401.119 96.3963C399.015 96.3569 397.127 95.9931 395.455 95.3048C393.803 94.5968 392.544 93.4659 391.679 91.9123C390.892 90.4569 390.479 88.9819 390.44 87.4873C390.401 85.9729 390.381 84.2619 390.381 82.3543V70.2003H384.953V64.0053H390.381V55.1553H398.405V64.0053H407.609V70.2003H398.405V81.8823C398.405 83.1213 398.415 84.2423 398.435 85.2453C398.474 86.2286 398.68 87.0153 399.054 87.6053C399.762 88.7263 400.893 89.3359 402.447 89.4343C404 89.5326 405.721 89.4539 407.609 89.1983V95.8653ZM369.266 96.7501C365.254 96.7501 362.009 95.8455 359.531 94.0361C357.073 92.2071 355.578 89.6308 355.047 86.3071L363.248 85.0681C363.582 86.5628 364.32 87.733 365.46 88.5786C366.621 89.4243 368.086 89.8471 369.856 89.8471C371.311 89.8471 372.432 89.5718 373.219 89.0211C374.006 88.4508 374.399 87.6641 374.399 86.6611C374.399 86.0318 374.242 85.5303 373.927 85.1566C373.612 84.7633 372.904 84.3798 371.803 84.0061C370.721 83.6325 369.03 83.1408 366.729 82.5311C364.133 81.8625 362.058 81.1151 360.504 80.2891C358.951 79.4631 357.83 78.4798 357.141 77.3391C356.453 76.1788 356.109 74.7825 356.109 73.1501C356.109 71.1048 356.63 69.3348 357.672 67.8401C358.715 66.3258 360.18 65.1654 362.068 64.3591C363.976 63.5331 366.218 63.1201 368.794 63.1201C371.292 63.1201 373.504 63.5036 375.431 64.2706C377.359 65.0376 378.912 66.1291 380.092 67.5451C381.292 68.9611 382.03 70.6328 382.305 72.5601L374.104 74.0351C373.966 72.8551 373.455 71.921 372.57 71.2326C371.685 70.5443 370.485 70.1411 368.971 70.0231C367.496 69.9248 366.306 70.1214 365.401 70.6131C364.516 71.1048 364.074 71.8128 364.074 72.7371C364.074 73.2878 364.261 73.75 364.634 74.1236C365.028 74.4973 365.824 74.8808 367.024 75.2741C368.243 75.6675 370.092 76.1788 372.57 76.8081C374.989 77.4375 376.926 78.1749 378.381 79.0206C379.856 79.8466 380.928 80.8496 381.597 82.0296C382.266 83.19 382.6 84.5961 382.6 86.2481C382.6 89.5128 381.42 92.0793 379.06 93.9476C376.7 95.816 373.435 96.7501 369.266 96.7501ZM334.242 64.0051V95.8651H342.325V79.5811C342.325 78.3618 342.492 77.2703 342.827 76.3066C343.161 75.3233 343.653 74.4776 344.302 73.7696C344.951 73.042 345.747 72.4618 346.691 72.0291C347.635 71.5768 348.687 71.3113 349.848 71.2326C351.028 71.1343 352.06 71.2228 352.945 71.4981V64.0051C351.982 63.8871 351.018 63.8675 350.054 63.9461C349.091 64.0051 348.156 64.1723 347.252 64.4476C346.347 64.7033 345.511 65.0671 344.744 65.5391C343.741 66.1291 342.896 66.8765 342.207 67.7811C341.881 68.2094 341.586 68.6597 341.322 69.132V64.0051H334.242ZM286.68 53.3848V95.8648H294.704V78.6368H309.1V70.6128H294.704V61.4088H312.64V53.3848H286.68ZM261.906 80.3478V74.1528H279.606V80.3478H261.906ZM249.494 96.3963C251.618 96.4553 253.781 96.2783 255.984 95.8653V89.1983C254.096 89.4539 252.375 89.5326 250.822 89.4343C249.268 89.3359 248.137 88.7263 247.429 87.6053C247.055 87.0153 246.849 86.2286 246.81 85.2453C246.79 84.2423 246.78 83.1213 246.78 81.8823V70.2003H255.984V64.0053H246.78V55.1553H238.756V64.0053H233.328V70.2003H238.756V82.3543C238.756 84.2619 238.776 85.9729 238.815 87.4873C238.854 88.9819 239.267 90.4569 240.054 91.9123C240.919 93.4659 242.178 94.5968 243.83 95.3048C245.502 95.9931 247.39 96.3569 249.494 96.3963ZM221.662 95.865V80.82C221.662 80.0924 221.622 79.168 221.544 78.047C221.465 76.9064 221.219 75.7657 220.806 74.625C220.393 73.4844 219.715 72.5305 218.771 71.7635C217.846 70.9965 216.529 70.613 214.818 70.613C214.129 70.613 213.392 70.7212 212.605 70.9375C211.818 71.1539 211.081 71.5767 210.393 72.206C209.704 72.8157 209.134 73.7204 208.682 74.92C208.249 76.1197 208.033 77.7127 208.033 79.699V95.865H199.891V64.005H207.03V67.2811C207.763 66.4602 208.609 65.732 209.567 65.0965C211.632 63.7395 214.228 63.061 217.355 63.061C219.852 63.061 221.888 63.4839 223.461 64.3295C225.034 65.1752 226.254 66.247 227.119 67.545C228.004 68.843 228.633 70.2 229.007 71.616C229.381 73.0124 229.607 74.2907 229.686 75.451C229.764 76.6114 229.804 77.457 229.804 77.988V95.865H221.662ZM171.674 94.6555C174.171 96.0518 177.053 96.75 180.317 96.75C183.385 96.75 186.207 95.9437 188.784 94.331C191.38 92.7183 193.278 90.4567 194.477 87.546L186.453 85.245C185.863 86.543 185.008 87.5362 183.887 88.2245C182.766 88.9128 181.419 89.257 179.845 89.257C177.348 89.257 175.45 88.4507 174.152 86.838C173.216 85.6428 172.622 84.0891 172.372 82.177H186.807H190.878H194.743C195.077 78.3223 194.684 74.9692 193.563 72.1175C192.442 69.2658 190.711 67.0533 188.371 65.48C186.03 63.9067 183.189 63.12 179.845 63.12C176.699 63.12 173.916 63.8378 171.497 65.2735C169.078 66.6895 167.18 68.6857 165.803 71.262C164.427 73.8383 163.738 76.867 163.738 80.348C163.738 83.534 164.436 86.366 165.833 88.844C167.249 91.3023 169.196 93.2395 171.674 94.6555ZM185.244 72.2355C185.93 73.1671 186.39 74.4946 186.624 76.218H172.583C172.896 74.7465 173.419 73.537 174.152 72.5895C175.45 70.9178 177.466 70.082 180.199 70.082C182.54 70.082 184.221 70.7998 185.244 72.2355ZM135.643 96.3963C137.767 96.4553 139.93 96.2783 142.133 95.8653V89.1983C140.245 89.4539 138.524 89.5326 136.97 89.4343C135.416 89.3359 134.286 88.7263 133.578 87.6053C133.204 87.0153 132.997 86.2286 132.958 85.2453C132.938 84.2423 132.929 83.1213 132.929 81.8823V70.2003H142.133V64.0053H132.929V55.1553H124.905V64.0053H119.477V70.2003H124.905V82.3543C124.905 84.2619 124.924 85.9729 124.964 87.4873C125.003 88.9819 125.416 90.4569 126.203 91.9123C127.068 93.4659 128.327 94.5968 129.979 95.3048C131.65 95.9931 133.538 96.3569 135.643 96.3963ZM98.0575 96.7501C95.7762 96.7501 93.839 96.3175 92.246 95.4521C90.6727 94.5671 89.473 93.3969 88.647 91.9416C87.8407 90.4666 87.4375 88.8441 87.4375 87.0741C87.4375 85.5991 87.6637 84.252 88.116 83.0326C88.5683 81.8133 89.296 80.7415 90.299 79.8171C91.3217 78.8731 92.6885 78.0865 94.3995 77.4571C95.5795 77.0245 96.9857 76.6409 98.618 76.3066C100.25 75.9723 102.099 75.6576 104.164 75.3626C105.379 75.1774 106.666 74.982 108.025 74.7763C107.872 73.4628 107.441 72.4586 106.73 71.7636C105.826 70.8786 104.312 70.4361 102.188 70.4361C101.007 70.4361 99.7783 70.7213 98.5 71.2916C97.2217 71.8619 96.3268 72.8748 95.8155 74.3301L88.5585 72.0291C89.3648 69.3938 90.8792 67.2501 93.1015 65.5981C95.3238 63.9461 98.3525 63.1201 102.188 63.1201C105 63.1201 107.498 63.5528 109.681 64.4181C111.863 65.2834 113.515 66.7781 114.637 68.9021C115.266 70.0821 115.64 71.2621 115.758 72.4421C115.876 73.6221 115.934 74.9398 115.934 76.3951V95.8651H108.914V91.9541C107.646 93.4476 106.299 94.5743 104.872 95.3341C103.082 96.2781 100.811 96.7501 98.0575 96.7501ZM99.7685 90.4371C101.243 90.4371 102.483 90.1814 103.486 89.6701C104.508 89.1391 105.314 88.5393 105.904 87.8706C106.514 87.202 106.927 86.6415 107.144 86.1891C107.557 85.3238 107.793 84.3208 107.852 83.1801C107.899 82.4731 107.933 81.8392 107.951 81.2782C106.63 81.5039 105.495 81.7052 104.548 81.8821C103.073 82.1378 101.883 82.3738 100.978 82.5901C100.073 82.8064 99.2768 83.0424 98.5885 83.2981C97.8018 83.6128 97.1627 83.957 96.671 84.3306C96.199 84.6846 95.845 85.0779 95.609 85.5106C95.3927 85.9433 95.2845 86.4251 95.2845 86.9561C95.2845 87.6838 95.4615 88.3131 95.8155 88.8441C96.1892 89.3554 96.7103 89.7488 97.379 90.0241C98.0477 90.2994 98.8442 90.4371 99.7685 90.4371ZM52 53.3848V95.8648H60.024V81.4688H69.936C70.3293 81.4688 70.88 81.4491 71.588 81.4098C72.296 81.3704 72.9253 81.3114 73.476 81.2328C75.9933 80.8394 78.0583 80.0036 79.671 78.7253C81.3033 77.4469 82.503 75.8441 83.27 73.9168C84.0567 71.9698 84.45 69.8064 84.45 67.4268C84.45 65.0471 84.0665 62.8936 83.2995 60.9663C82.5325 59.0193 81.3328 57.4066 79.7005 56.1283C78.0878 54.8499 76.013 54.0141 73.476 53.6208C72.9253 53.5224 72.296 53.4634 71.588 53.4438C70.8997 53.4044 70.349 53.3848 69.936 53.3848H52ZM69.582 73.9758H60.024V60.8778H69.582C69.995 60.8778 70.4473 60.8974 70.939 60.9368C71.4307 60.9761 71.883 61.0548 72.296 61.1728C73.3777 61.4678 74.2135 61.9693 74.8035 62.6773C75.3935 63.3656 75.7967 64.1424 76.013 65.0078C76.249 65.8534 76.367 66.6598 76.367 67.4268C76.367 68.1938 76.249 69.0099 76.013 69.8753C75.7967 70.7209 75.3935 71.4978 74.8035 72.2058C74.2135 72.8941 73.3777 73.3858 72.296 73.6808C71.883 73.7988 71.4307 73.8774 70.939 73.9168C70.4473 73.9561 69.995 73.9758 69.582 73.9758Z" fill="url(#paint0_linear_78_641)" fill-opacity="0.7"/>
</g>
<defs>
<filter id="filter0_f_78_641" x="0" y="0.5" width="459.609" height="148.25" filterUnits="userSpaceOnUse" color-interpolation-filters="sRGB">
<feFlood flood-opacity="0" result="BackgroundImageFix"/>
<feBlend mode="normal" in="SourceGraphic" in2="BackgroundImageFix" result="shape"/>
<feGaussianBlur stdDeviation="26" result="effect1_foregroundBlur_78_641"/>
</filter>
<linearGradient id="paint0_linear_78_641" x1="50.0525" y1="74.6251" x2="405.272" y2="74.625" gradientUnits="userSpaceOnUse">
<stop stop-color="#66BBFC"/>
<stop offset="0.234375" stop-color="#418EF4"/>
<stop offset="0.489583" stop-color="#4606EC"/>
<stop offset="0.739583" stop-color="#7B3DF0"/>
<stop offset="1" stop-color="#AB89FC"/>
</linearGradient>
</defs>
</svg>
