<svg width="53" height="52" viewBox="0 0 53 52" fill="none" xmlns="http://www.w3.org/2000/svg">
<path d="M45.9236 19.0759C44.5171 12.8893 39.6117 7.98221 33.4234 6.57578C32.5243 6.37254 31.5943 6.58229 30.874 7.15461C30.1667 7.71881 29.7602 8.56266 29.7602 9.46668V18.6727C29.7602 20.9132 31.5829 22.7375 33.825 22.7375H43.0327C43.9367 22.7375 44.7789 22.331 45.3431 21.6253C45.917 20.9067 46.1284 19.9767 45.9236 19.0759ZM44.0732 20.6108C43.8196 20.9295 43.4391 21.1116 43.0327 21.1116H33.825C32.4804 21.1116 31.3862 20.0157 31.3862 18.6727V9.46668C31.3862 9.0602 31.5683 8.68136 31.8886 8.42609C32.2203 8.16269 32.6495 8.06676 33.0641 8.16106C38.6443 9.43091 43.0701 13.8567 44.3383 19.4385C44.4326 19.8547 44.3367 20.2823 44.0732 20.6124V20.6108ZM38.8394 25.991H28.9489C27.6042 25.991 26.51 24.8967 26.51 23.5521V13.6616C26.51 12.2698 26.11 11.2162 25.3214 10.5317C24.2695 9.61789 22.8793 9.69756 22.3314 9.77723C13.0896 11.0991 6.37617 19.5084 7.04605 28.9209C7.67203 37.7204 14.7806 44.8306 23.5801 45.4549C24.0142 45.4858 24.4451 45.5004 24.8743 45.5004C33.7519 45.5004 41.4636 38.9854 42.7237 30.1696C42.8018 29.6217 42.8847 28.2331 41.9693 27.1795C41.2848 26.3909 40.2328 25.991 38.8394 25.991ZM41.1124 29.9403C39.9109 38.3415 32.2544 44.4403 23.6955 43.8339C15.8277 43.2746 9.22641 36.6717 8.66547 28.8038C8.05737 20.2384 14.1595 12.5885 22.5606 11.3869C22.6435 11.3755 22.7931 11.3576 22.9752 11.3576C23.3525 11.3576 23.876 11.4275 24.2565 11.7592C24.6743 12.1218 24.8857 12.7608 24.8857 13.6599V23.5504C24.8857 25.791 26.71 27.6153 28.9505 27.6153H38.841C39.7418 27.6153 40.3808 27.8266 40.7417 28.2445C41.2311 28.8087 41.1498 29.6851 41.1141 29.9387L41.1124 29.9403Z" fill="#A1A1AA"/>
</svg>
