<svg width="53" height="52" viewBox="0 0 53 52" fill="none" xmlns="http://www.w3.org/2000/svg">
<path d="M46 20.0416C46 22.4206 45.1826 25.019 43.5723 27.7653C43.4195 28.0236 43.1481 28.1666 42.8703 28.1666C42.7289 28.1666 42.5875 28.1309 42.4591 28.0545C42.0724 27.827 41.9424 27.3298 42.1683 26.943C43.6308 24.4486 44.3734 22.1281 44.3734 20.0416C44.3734 14.9391 40.1143 10.2916 35.4359 10.2916C31.6106 10.2916 29.6525 11.798 27.826 13.475L20.8531 20.378C19.896 21.3351 19.7173 22.8171 20.442 23.823C20.9019 24.4616 21.5779 24.8468 22.3465 24.9085C23.1038 24.9654 23.848 24.6973 24.3843 24.161L31.6155 17.0273C31.934 16.712 32.4508 16.7153 32.7644 17.0354C33.0796 17.3539 33.0764 17.869 32.7579 18.1843L30.4244 20.4869L39.0645 28.0708C40.631 29.4439 41.0243 31.7384 39.9794 33.4089C39.3359 34.4391 38.2829 35.1314 37.095 35.3053C36.7131 35.3621 36.328 35.3654 35.951 35.3118C36.1623 36.3128 36.0111 37.369 35.4603 38.2514C34.8151 39.2833 33.7621 39.9739 32.5743 40.1477C32.0104 40.2306 31.4465 40.1949 30.9135 40.0486C30.9785 40.8839 30.7981 41.7289 30.3415 42.4552C29.698 43.4855 28.645 44.1777 27.4571 44.3516C27.2572 44.3809 27.059 44.3955 26.8608 44.3955C25.8744 44.3955 24.9156 44.0396 24.1649 43.3799L18.8983 38.6544C10.8919 31.4183 7 25.331 7 20.0416C7 13.982 11.9368 8.66663 17.5625 8.66663C19.4475 8.66663 21.3309 9.27763 23.0128 10.4346C23.3833 10.6898 23.4759 11.1951 23.2224 11.564C22.9689 11.9361 22.4635 12.0288 22.093 11.7736C20.6841 10.8035 19.1176 10.2916 17.5641 10.2916C12.8874 10.2916 8.62663 14.9391 8.62663 20.0416C8.62663 24.7785 12.4486 30.635 19.987 37.447L25.2439 42.1644C25.7817 42.6373 26.5033 42.8469 27.2231 42.7445C27.9495 42.6389 28.5703 42.2294 28.9668 41.594C29.594 40.593 29.3324 39.1923 28.3574 38.3375L22.9364 33.1846C22.6114 32.8759 22.5984 32.3624 22.9071 32.0374C23.2143 31.7108 23.7294 31.6978 24.0544 32.0049L30.3772 37.9735C30.8989 38.4318 31.622 38.6495 32.3403 38.5406C33.0666 38.435 33.6874 38.0255 34.0855 37.3901C34.7111 36.3908 34.4495 34.99 33.4745 34.1353L27.4376 28.6704C27.1061 28.3698 27.0785 27.8579 27.3775 27.5248C27.6749 27.19 28.1868 27.1624 28.5231 27.4598L34.8785 33.1164C35.4196 33.5893 36.1379 33.8021 36.861 33.6981C37.5874 33.5909 38.2065 33.183 38.6046 32.5476C39.2303 31.5466 38.9686 30.1459 37.9936 29.2928L29.2658 21.6309L25.5315 25.3148C24.6605 26.1858 23.4515 26.6229 22.2181 26.5303C20.9847 26.4295 19.857 25.7909 19.1258 24.7736C17.9411 23.1291 18.1914 20.7453 19.7091 19.2275L26.7064 12.3018C28.7181 10.4525 31.0305 8.66825 35.4375 8.66825C41.0649 8.66825 46 13.982 46 20.0416Z" fill="#A1A1AA"/>
</svg>
