<svg width="53" height="52" viewBox="0 0 53 52" fill="none" xmlns="http://www.w3.org/2000/svg">
<path d="M8.61745 21.8356C9.0761 18.6559 11.8703 16.2586 15.115 16.2586C16.0892 16.2586 17.0244 16.4651 17.8978 16.8717C18.3044 17.0604 18.4817 17.5451 18.2914 17.9517C18.1028 18.3599 17.6197 18.5372 17.2115 18.3453C16.5544 18.0395 15.8502 17.885 15.115 17.885C12.6738 17.885 10.5724 19.6822 10.2276 22.0665C10.1691 22.4715 9.821 22.7643 9.42416 22.7643C9.38675 22.7643 9.34609 22.761 9.30705 22.7561C8.86304 22.6911 8.55402 22.2796 8.61908 21.8356H8.61745ZM35.1022 16.8717C34.6956 17.0604 34.5183 17.5451 34.7086 17.9517C34.8972 18.3599 35.3803 18.5372 35.7885 18.3453C36.4456 18.0395 37.1498 17.885 37.885 17.885C40.3262 17.885 42.4276 19.6822 42.7724 22.0665C42.8309 22.4715 43.179 22.7643 43.5758 22.7643C43.6133 22.7643 43.6539 22.761 43.6929 22.7561C44.137 22.6911 44.446 22.2796 44.3809 21.8356C43.9223 18.6559 41.1281 16.2586 37.8834 16.2586C36.9091 16.2586 35.9756 16.4651 35.1022 16.8717ZM34.6321 11.3793C34.6321 9.58533 36.091 8.12643 37.885 8.12643C39.6789 8.12643 41.1378 9.58533 41.1378 11.3793C41.1378 13.1732 39.6789 14.6321 37.885 14.6321C36.091 14.6321 34.6321 13.1732 34.6321 11.3793ZM36.2586 11.3793C36.2586 12.2771 36.9888 13.0057 37.885 13.0057C38.7811 13.0057 39.5114 12.2771 39.5114 11.3793C39.5114 10.4815 38.7811 9.75285 37.885 9.75285C36.9888 9.75285 36.2586 10.4815 36.2586 11.3793ZM20.692 22.7561C21.1377 22.8147 21.5492 22.5105 21.6126 22.0665C21.9574 19.6822 24.0587 17.885 26.5 17.885C28.9413 17.885 31.0426 19.6822 31.3874 22.0665C31.446 22.4715 31.794 22.7643 32.1909 22.7643C32.2283 22.7643 32.2689 22.761 32.308 22.7561C32.752 22.6911 33.061 22.2796 32.9959 21.8356C32.5373 18.6559 29.7431 16.2586 26.4984 16.2586C23.2537 16.2586 20.4611 18.6559 20.0008 21.8356C19.9357 22.2796 20.2448 22.6911 20.6888 22.7561H20.692ZM45.9992 26.8645C45.552 37.3338 36.9856 45.5342 26.5 45.5342C16.0144 45.5342 7.44968 37.3338 7.00078 26.8645C6.98127 26.4156 7.32932 26.0366 7.77821 26.0171C8.21898 26.0301 8.60606 26.3456 8.62558 26.7962C8.71178 28.8178 9.14604 30.737 9.8389 32.5228H17.8198C17.2456 30.7468 16.8488 28.852 16.761 26.8661C16.7414 26.4172 17.0879 26.0366 17.5368 26.0187C17.9792 25.9683 18.3646 26.344 18.3858 26.7945C18.4752 28.8032 18.9241 30.7256 19.5568 32.5228H33.4432C34.0759 30.7256 34.5248 28.8032 34.6142 26.7945C34.6354 26.3456 35.0225 25.9748 35.4632 26.0187C35.9121 26.0383 36.2586 26.4172 36.239 26.8661C36.1496 28.8503 35.7527 30.7468 35.1802 32.5228H43.1611C43.854 30.737 44.2882 28.8162 44.3744 26.7962C44.3939 26.3473 44.7794 26.0334 45.2218 26.0171C45.6707 26.0383 46.0187 26.4156 45.9992 26.8645ZM24.4816 43.7858C22.8227 41.9235 20.139 38.4885 18.4053 34.1492H10.5675C13.2365 39.3912 18.3906 43.106 24.4816 43.7858ZM26.5 43.563C27.7393 42.2651 30.8068 38.7634 32.8057 34.1492H20.1927C22.1916 38.765 25.259 42.2667 26.4984 43.563H26.5ZM42.4325 34.1492H34.5947C32.861 38.4885 30.1773 41.9235 28.5184 43.7858C34.6094 43.106 39.7635 39.3896 42.4325 34.1492ZM11.8622 11.3793C11.8622 9.58533 13.3211 8.12643 15.115 8.12643C16.909 8.12643 18.3679 9.58533 18.3679 11.3793C18.3679 13.1732 16.909 14.6321 15.115 14.6321C13.3211 14.6321 11.8622 13.1732 11.8622 11.3793ZM13.4886 11.3793C13.4886 12.2771 14.2189 13.0057 15.115 13.0057C16.0112 13.0057 16.7414 12.2771 16.7414 11.3793C16.7414 10.4815 16.0112 9.75285 15.115 9.75285C14.2189 9.75285 13.4886 10.4815 13.4886 11.3793ZM22.621 10.5661C22.621 8.32322 24.4458 6.5 26.687 6.5C28.9283 6.5 30.7531 8.32322 30.7531 10.5661C30.7531 12.8089 28.9283 14.6321 26.687 14.6321C24.4458 14.6321 22.621 12.8089 22.621 10.5661ZM24.2474 10.5661C24.2474 11.9111 25.342 13.0057 26.687 13.0057C28.0321 13.0057 29.1267 11.9111 29.1267 10.5661C29.1267 9.22101 28.0321 8.12643 26.687 8.12643C25.342 8.12643 24.2474 9.22101 24.2474 10.5661Z" fill="#A1A1AA"/>
</svg>
