<svg width="20" height="20" viewBox="0 0 20 20" fill="none" xmlns="http://www.w3.org/2000/svg">
<g clip-path="url(#clip0_210_399)">
<path d="M14.9722 0H5.01188C2.25217 0 0 2.25396 0 5.01586V14.9999C0 17.746 2.25217 19.9999 5.01188 19.9999H14.9881C17.7478 19.9999 19.9999 17.746 19.9999 14.9841V5.01586C19.9841 2.25396 17.7319 0 14.9722 0ZM6.66136 16.1904H3.80649V7.93648H6.66136V16.1904ZM5.21806 6.66664C4.40918 6.66664 3.75891 6.01585 3.75891 5.20633C3.75891 4.39681 4.40918 3.74602 5.21806 3.74602C6.02694 3.74602 6.67722 4.39681 6.67722 5.20633C6.66136 6.01585 6.01108 6.66664 5.21806 6.66664ZM16.1934 16.1904H16.1776H13.7985V12.1904C13.7985 11.2222 13.6716 9.98409 12.3552 9.98409C11.0071 9.98409 10.7851 11.0317 10.7851 12.1269V16.1904H8.406V7.93648H10.6265V9.04759H10.6899C11.0388 8.41267 11.8477 7.92061 13.1165 7.92061C15.7335 7.92061 16.1934 9.42854 16.1934 11.6666V16.1904Z" fill="#101828"/>
</g>
<defs>
<clipPath id="clip0_210_399">
<rect width="20" height="20" fill="white"/>
</clipPath>
</defs>
</svg>
