<svg width="20" height="21" viewBox="0 0 20 21" fill="none" xmlns="http://www.w3.org/2000/svg">
<g clip-path="url(#clip0_3496_1212)">
<path d="M14.9722 0.500061H5.0119C2.25218 0.500061 0 2.75224 0 5.51196V15.4882C0 18.232 2.25218 20.4842 5.0119 20.4842H14.9881C17.7478 20.4842 20 18.232 20 15.4723V5.51196C19.9841 2.75224 17.732 0.500061 14.9722 0.500061ZM6.66138 16.6777H3.8065V8.43027H6.66138V16.6777ZM5.21808 7.16144C4.4092 7.16144 3.75892 6.51116 3.75892 5.70228C3.75892 4.8934 4.4092 4.24312 5.21808 4.24312C6.02696 4.24312 6.67724 4.8934 6.67724 5.70228C6.66138 6.51116 6.0111 7.16144 5.21808 7.16144ZM16.1935 16.6777H16.1776H13.7986V12.6809C13.7986 11.7134 13.6717 10.4763 12.3553 10.4763C11.0071 10.4763 10.7851 11.5231 10.7851 12.6174V16.6777H8.40603V8.43027H10.6265V9.54051H10.6899C11.0389 8.90609 11.8477 8.41441 13.1166 8.41441C15.7335 8.41441 16.1935 9.92115 16.1935 12.1575V16.6777Z" fill="white"/>
</g>
<defs>
<clipPath id="clip0_3496_1212">
<rect width="20" height="20" fill="white" transform="translate(0 0.5)"/>
</clipPath>
</defs>
</svg>
