<svg width="20" height="20" viewBox="0 0 20 20" fill="none" xmlns="http://www.w3.org/2000/svg">
<path d="M19.9617 4.61801L12.9467 11.633C12.1645 12.4132 11.1048 12.8514 10 12.8514C8.89521 12.8514 7.83552 12.4132 7.05333 11.633L0.0383333 4.61801C0.0266667 4.74968 0 4.86884 0 4.99968V14.9997C0.00132321 16.1043 0.440735 17.1634 1.22185 17.9445C2.00296 18.7256 3.062 19.165 4.16667 19.1663H15.8333C16.938 19.165 17.997 18.7256 18.7782 17.9445C19.5593 17.1634 19.9987 16.1043 20 14.9997V4.99968C20 4.86884 19.9733 4.74968 19.9617 4.61801Z" fill="#101828"/>
<path d="M11.7684 10.4547L19.38 2.84217C19.0113 2.23077 18.4913 1.72471 17.87 1.37278C17.2488 1.02086 16.5474 0.834958 15.8334 0.833008H4.16671C3.45273 0.834958 2.75129 1.02086 2.13006 1.37278C1.50884 1.72471 0.988774 2.23077 0.620042 2.84217L8.23171 10.4547C8.70135 10.9224 9.3372 11.1851 10 11.1851C10.6629 11.1851 11.2987 10.9224 11.7684 10.4547Z" fill="#101828"/>
</svg>
