<svg width="20" height="20" viewBox="0 0 20 20" fill="none" xmlns="http://www.w3.org/2000/svg">
<path d="M10.0003 0C7.79108 0.00242591 5.673 0.879395 4.11075 2.43852C2.5485 3.99765 1.66964 6.11161 1.66699 8.31665C1.66699 10.4583 3.32848 13.81 6.60554 18.2783C6.99567 18.8117 7.50647 19.2457 8.09638 19.5449C8.68628 19.8441 9.33863 20 10.0003 20C10.662 20 11.3144 19.8441 11.9043 19.5449C12.4942 19.2457 13.005 18.8117 13.3951 18.2783C16.6722 13.81 18.3337 10.4583 18.3337 8.31665C18.331 6.11161 17.4522 3.99765 15.8899 2.43852C14.3277 0.879395 12.2096 0.00242591 10.0003 0ZM10.0003 11.6316C9.3398 11.6316 8.69411 11.4362 8.1449 11.0699C7.59569 10.7036 7.16764 10.183 6.91486 9.57393C6.66209 8.96484 6.59596 8.29462 6.72482 7.64802C6.85368 7.00142 7.17175 6.40748 7.63882 5.9413C8.10588 5.47513 8.70095 5.15766 9.34879 5.02904C9.99662 4.90042 10.6681 4.96643 11.2784 5.21873C11.8886 5.47102 12.4102 5.89826 12.7772 6.44642C13.1441 6.99459 13.34 7.63905 13.34 8.29832C13.34 9.18237 12.9881 10.0302 12.3618 10.6553C11.7355 11.2805 10.8861 11.6316 10.0003 11.6316Z" fill="#101828"/>
</svg>
