<svg width="20" height="20" viewBox="0 0 20 20" fill="none" xmlns="http://www.w3.org/2000/svg">
<path d="M0 5.20462C0 11.5693 8.44031 20 14.7976 20C16.1891 20 17.4889 19.4752 18.447 18.5171L19.2802 17.5591C20.2468 16.5927 20.2468 14.9599 19.2386 13.9519C19.2136 13.9269 17.2056 12.3857 17.2056 12.3857C16.2057 11.436 14.631 11.436 13.6395 12.3857L12.423 13.3604C9.75677 12.2274 7.86541 10.328 6.64893 7.57055L7.61545 6.35426C8.57363 5.36291 8.57363 3.78007 7.61545 2.78871C7.61545 2.78871 6.07403 0.781006 6.04903 0.756014C5.04086 -0.252005 3.40779 -0.252005 2.39961 0.756014L1.52476 1.51411C0.524916 2.50547 0 3.80506 0 5.19629V5.20462Z" fill="#101828"/>
</svg>
