<svg width="60" height="50" viewBox="0 0 60 50" fill="none" xmlns="http://www.w3.org/2000/svg">
<path d="M34.6875 50V34.0824C34.6875 24.9688 36.8125 17.4782 41.0625 11.6105C45.4375 5.61798 51.75 1.74781 60 0V10.2996C56 11.2984 52.875 13.171 50.625 15.9176C48.375 18.5393 47 21.7853 46.5 25.6554H56.25V50H34.6875ZM0 50V34.0824C0 24.9688 2.125 17.4782 6.375 11.6105C10.75 5.61798 17.0625 1.74781 25.3125 0V10.2996C21.3125 11.2984 18.1875 13.171 15.9375 15.9176C13.6875 18.5393 12.3125 21.7853 11.8125 25.6554H21.5625V50H0Z" fill="url(#paint0_linear_159_521)"/>
<defs>
<linearGradient id="paint0_linear_159_521" x1="0" y1="0" x2="52.4468" y2="56.9553" gradientUnits="userSpaceOnUse">
<stop stop-color="#71C9FF"/>
<stop offset="1" stop-color="#B69BFF"/>
</linearGradient>
</defs>
</svg>
