<svg width="204" height="48" viewBox="0 0 204 48" fill="none" xmlns="http://www.w3.org/2000/svg">
<g clip-path="url(#clip0_78_630)">
<path d="M5.53725 31.9522C2.4791 31.9522 -3.64678e-08 29.4629 0 26.3924L5.76771e-08 21.5359C9.41451e-08 18.4653 2.47912 15.9761 5.53725 15.9761H10.3739C13.4321 15.9761 15.9112 13.4869 15.9112 10.4163V5.55985C15.9112 2.48922 18.3903 -3.66153e-08 21.4484 0L26.2851 5.79132e-08C29.3434 9.45303e-08 31.8224 2.48924 31.8224 5.55985V24.5391C31.8224 28.6332 28.5168 31.9522 24.4394 31.9522H5.53725Z" fill="url(#paint0_linear_78_630)"/>
<path d="M42.2675 16.0478C45.3258 16.0478 47.8048 18.5371 47.8048 21.6076V26.4641C47.8048 29.5346 45.3258 32.024 42.2675 32.024H37.4308C34.3727 32.024 31.8937 34.5131 31.8937 37.5838V42.4401C31.8937 45.5108 29.4145 48 26.3564 48H21.5197C18.4614 48 15.9824 45.5108 15.9824 42.4401V23.4609C15.9824 19.3668 19.288 16.0478 23.3654 16.0478H42.2675Z" fill="url(#paint1_linear_78_630)"/>
<path fill-rule="evenodd" clip-rule="evenodd" d="M31.8223 16.0478V24.5391C31.8223 28.6332 28.5168 31.9522 24.4393 31.9522H15.9824V23.4609C15.9824 19.3668 19.2878 16.0478 23.3655 16.0478H31.8223Z" fill="#4507EC"/>
<path d="M75.4672 31.1351H73.0105V25.3862H65.5389V31.1351H63.1025V17.5784H65.5389V23.1845H73.0105V17.5784H75.4672V31.1351Z" fill="#191F28"/>
<path d="M88.3083 25.6716C88.3083 26.0929 88.2339 26.6026 88.0849 27.2006H80.3697C80.5593 27.8665 80.9179 28.3899 81.4458 28.7703C81.9873 29.1373 82.6505 29.3208 83.4355 29.3208C84.4913 29.3208 85.4929 28.8995 86.4404 28.0568L87.8819 29.6062C87.2593 30.1634 86.5622 30.5982 85.7907 30.9109C85.0328 31.2235 84.2544 31.3798 83.4558 31.3798C82.4 31.3798 81.4526 31.169 80.6133 30.7478C79.7877 30.3128 79.138 29.7081 78.6642 28.9334C78.1906 28.1452 77.9536 27.2482 77.9536 26.2425C77.9536 25.2639 78.1769 24.3942 78.6236 23.633C79.0839 22.8719 79.72 22.2807 80.5321 21.8594C81.3443 21.4245 82.2716 21.2071 83.3137 21.2071C84.3694 21.2071 85.2764 21.4178 86.0343 21.8391C86.7924 22.2468 87.3608 22.7972 87.7398 23.4903C88.1189 24.1699 88.3083 24.897 88.3083 25.6716ZM83.2934 23.2457C82.5355 23.2457 81.9061 23.4156 81.4052 23.7554C80.9044 24.0815 80.5661 24.5573 80.39 25.1824H85.9125C85.8313 24.6116 85.5607 24.1495 85.1004 23.7961C84.6402 23.4292 84.0379 23.2457 83.2934 23.2457Z" fill="#191F28"/>
<path d="M100.663 31.1351H98.4698V30.6051C97.7794 31.1216 96.7168 31.3798 95.2821 31.3798C94.3076 31.3798 93.4142 31.1624 92.6021 30.7274C91.79 30.2924 91.1403 29.6877 90.653 28.913C90.1792 28.1384 89.9424 27.2618 89.9424 26.2832C89.9424 25.3047 90.1792 24.4281 90.653 23.6534C91.1403 22.8788 91.79 22.2807 92.6021 21.8594C93.4277 21.4245 94.3414 21.2071 95.3431 21.2071C96.5884 21.2071 97.6035 21.4856 98.3885 22.0429V21.4313H100.663V31.1351ZM95.404 29.28C96.3379 29.28 97.0891 29.0081 97.6576 28.4645C98.2396 27.921 98.5307 27.1937 98.5307 26.2832C98.5307 25.3727 98.2396 24.6455 97.6576 24.1019C97.0891 23.5446 96.3379 23.2661 95.404 23.2661C94.47 23.2661 93.712 23.5446 93.13 24.1019C92.5615 24.6592 92.2773 25.3862 92.2773 26.2832C92.2773 27.1802 92.5615 27.9073 93.13 28.4645C93.712 29.0081 94.47 29.28 95.404 29.28Z" fill="#191F28"/>
<path d="M105.911 16.9668V31.1351H103.637V16.9668H105.911Z" fill="#191F28"/>
<path d="M115.475 30.8905C114.852 31.2167 114.121 31.3798 113.282 31.3798C112.037 31.3798 111.082 31.0808 110.419 30.4828C109.77 29.8712 109.445 28.9877 109.445 27.8326V23.4496H107.394V21.4314H109.445V18.6792H111.719V21.4314H115.921V23.4496H111.719V27.8326C111.719 28.7976 112.233 29.28 113.262 29.28C113.546 29.28 113.803 29.2596 114.033 29.2188C114.277 29.1781 114.561 29.0897 114.886 28.9538L115.84 30.7274L115.475 30.8905Z" fill="#191F28"/>
<path d="M123.479 21.2071C124.305 21.2071 125.049 21.3771 125.713 21.7168C126.376 22.0429 126.89 22.5118 127.256 23.1234C127.635 23.735 127.824 24.4416 127.824 25.2436V31.1351H125.55V25.4066C125.55 24.7408 125.34 24.2174 124.921 23.8369C124.501 23.4564 123.932 23.2661 123.215 23.2661C122.498 23.2661 121.868 23.47 121.327 23.8777C120.799 24.2719 120.535 24.8086 120.535 25.4882V31.1351H118.261V16.9668H120.535V21.9002C121.185 21.4382 122.166 21.2071 123.479 21.2071Z" fill="#191F28"/>
<path d="M136.891 19.7801V31.1351H134.434V19.7801H129.622V17.5784H141.702V19.7801H136.891Z" fill="#191F28"/>
<path d="M148.448 22.5526L148.124 23.5923L147.717 23.4292C147.42 23.3204 147.074 23.2661 146.682 23.2661C145.965 23.2661 145.335 23.4699 144.794 23.8777C144.266 24.2719 144.002 24.8086 144.002 25.4882V31.1351H141.728V21.4313H144.002V21.9002C144.652 21.4382 145.633 21.2071 146.946 21.2071C147.487 21.2071 148.096 21.309 148.773 21.5129L148.712 21.7167L148.448 22.5526Z" fill="#191F28"/>
<path d="M154.66 31.3798C153.835 31.3798 153.097 31.2167 152.447 30.8905C151.797 30.5508 151.283 30.0751 150.904 29.4635C150.539 28.8384 150.356 28.1249 150.356 27.3229V21.4314H152.63V27.1802C152.63 27.8461 152.833 28.3626 153.239 28.7296C153.645 29.0965 154.22 29.28 154.965 29.28C155.682 29.28 156.305 29.083 156.833 28.6888C157.374 28.2811 157.645 27.7375 157.645 27.0579V21.4314H159.898V31.1351H157.645V30.6663C156.955 31.142 155.96 31.3798 154.66 31.3798Z" fill="#191F28"/>
<path d="M166.694 31.3798C165.909 31.3798 165.07 31.2506 164.176 30.9924C163.297 30.7343 162.559 30.3877 161.963 29.9527L163.1 28.1995C163.52 28.4985 164.075 28.7568 164.765 28.9742C165.469 29.1781 166.119 29.28 166.714 29.28C167.351 29.28 167.878 29.1984 168.298 29.0354C168.731 28.8723 168.948 28.6141 168.948 28.2607C168.948 27.9888 168.758 27.7918 168.379 27.6695C168 27.5336 167.391 27.3909 166.552 27.2414C165.591 27.0783 164.826 26.8948 164.258 26.691C163.689 26.4871 163.256 26.2017 162.958 25.8347C162.661 25.4678 162.512 24.9717 162.512 24.3466C162.512 23.2322 162.951 22.4303 163.831 21.941C164.711 21.4517 165.76 21.2071 166.978 21.2071C167.709 21.2071 168.447 21.3159 169.191 21.5333C169.936 21.7507 170.606 22.0429 171.201 22.4099L170.064 24.1427C169.604 23.8708 169.103 23.6603 168.562 23.5107C168.021 23.3476 167.479 23.2661 166.938 23.2661C166.261 23.2661 165.74 23.3612 165.374 23.5515C165.009 23.7281 164.826 23.9796 164.826 24.3058C164.826 24.4553 164.88 24.5777 164.989 24.6727C165.11 24.7678 165.307 24.8562 165.577 24.9377C165.862 25.0058 166.295 25.0873 166.877 25.1824C167.892 25.359 168.691 25.5358 169.273 25.7124C169.855 25.889 170.328 26.1744 170.694 26.5686C171.073 26.9491 171.262 27.4929 171.262 28.1995C171.262 29.2053 170.843 29.9866 170.003 30.5439C169.178 31.1012 168.075 31.3798 166.694 31.3798Z" fill="#191F28"/>
<path d="M179.987 30.8905C179.364 31.2167 178.633 31.3798 177.794 31.3798C176.549 31.3798 175.595 31.0808 174.931 30.4828C174.282 29.8712 173.957 28.9877 173.957 27.8326V23.4496H171.906V21.4314H173.957V18.6792H176.231V21.4314H180.434V23.4496H176.231V27.8326C176.231 28.7976 176.745 29.28 177.774 29.28C178.058 29.28 178.315 29.2596 178.545 29.2188C178.789 29.1781 179.073 29.0897 179.398 28.9538L180.352 30.7274L179.987 30.8905Z" fill="#191F28"/>
<path d="M185.88 27.9345L184.377 31.1351H181.677L187.87 17.5784H190.286L196.478 31.1351H193.778L192.316 27.9345H185.88ZM189.088 20.6159L186.895 25.7532H191.341L189.088 20.6159Z" fill="#191F28"/>
<path d="M198.769 31.1351V17.5784H201.205V31.1351H198.769Z" fill="#191F28"/>
</g>
<defs>
<linearGradient id="paint0_linear_78_630" x1="35.3291" y1="43.1021" x2="10.8419" y2="2.45216" gradientUnits="userSpaceOnUse">
<stop stop-color="#0340E2"/>
<stop offset="1" stop-color="#71C9FF"/>
</linearGradient>
<linearGradient id="paint1_linear_78_630" x1="44.4513" y1="38.9015" x2="10.8354" y2="16.1475" gradientUnits="userSpaceOnUse">
<stop stop-color="#B69BFF"/>
<stop offset="1" stop-color="#5400E6"/>
</linearGradient>
<clipPath id="clip0_78_630">
<rect width="203.586" height="48" fill="white"/>
</clipPath>
</defs>
</svg>
