<svg width="41" height="40" viewBox="0 0 41 40" fill="none" xmlns="http://www.w3.org/2000/svg">
<rect x="0.5" width="40" height="40" rx="8" fill="#101828"/>
<path d="M18.9938 12.5062C18.9938 11.674 19.6678 11 20.5 11C21.3322 11 22.0062 11.674 22.0062 12.5062C22.0062 13.3385 21.3322 14.0125 20.5 14.0125C19.6678 14.0125 18.9938 13.3385 18.9938 12.5062ZM22.0062 23.8031C22.0062 22.9709 21.3322 22.2969 20.5 22.2969C19.6678 22.2969 18.9938 22.9709 18.9938 23.8031C18.9938 24.6353 19.6678 25.3094 20.5 25.3094C21.3322 25.3094 22.0062 24.6353 22.0062 23.8031ZM26.9016 17.025C26.0694 17.025 25.3953 17.699 25.3953 18.5312C25.3953 19.3634 26.0694 20.0375 26.9016 20.0375C27.7338 20.0375 28.4078 19.3634 28.4078 18.5312C28.4078 17.699 27.7338 17.025 26.9016 17.025ZM15.6047 18.5312C15.6047 17.699 14.9306 17.025 14.0984 17.025C13.2662 17.025 12.5922 17.699 12.5922 18.5312C12.5922 19.3634 13.2662 20.0375 14.0984 20.0375C14.9306 20.0375 15.6047 19.3634 15.6047 18.5312ZM14.0984 22.2969C14.6332 22.2969 15.0993 22.6764 15.2055 23.1999C15.2778 23.5568 15.5919 23.8031 15.9428 23.8031C15.9925 23.8031 16.043 23.7978 16.0935 23.7873C16.5009 23.7052 16.7645 23.3068 16.6817 22.8994C16.4331 21.677 15.3471 20.7899 14.0984 20.7899C12.8498 20.7899 11.7638 21.6778 11.5152 22.9001C11.4324 23.3076 11.696 23.7052 12.1034 23.7881C12.5116 23.8694 12.9085 23.6081 12.9913 23.2006C13.0975 22.6772 13.563 22.2969 14.0984 22.2969ZM20.5 14.7656C19.2521 14.7656 18.1653 15.6528 17.9168 16.8751C17.8339 17.2826 18.0975 17.6802 18.505 17.7631C18.9132 17.8451 19.3101 17.5831 19.3929 17.1756C19.4991 16.6522 19.9645 16.2726 20.5 16.2726C21.0355 16.2726 21.5009 16.6522 21.6071 17.1756C21.6794 17.5326 21.9934 17.7789 22.3444 17.7789C22.3941 17.7789 22.4446 17.7736 22.495 17.7631C22.9025 17.681 23.1661 17.2826 23.0832 16.8751C22.8347 15.6528 21.7487 14.7656 20.5 14.7656ZM20.5 26.0625C19.2521 26.0625 18.1653 26.9497 17.9168 28.172C17.8339 28.5794 18.0975 28.9771 18.505 29.0599C18.9132 29.1443 19.3101 28.8792 19.3929 28.4725C19.4991 27.9491 19.9645 27.5695 20.5 27.5695C21.0355 27.5695 21.5009 27.9491 21.6071 28.4725C21.6794 28.8295 21.9934 29.0757 22.3444 29.0757C22.3941 29.0757 22.4446 29.0705 22.495 29.0599C22.9025 28.9778 23.1661 28.5794 23.0832 28.172C22.8347 26.9497 21.7487 26.0625 20.5 26.0625ZM29.4848 22.5236C29.2362 21.3012 28.1502 20.4141 26.9016 20.4141C25.6529 20.4141 24.5669 21.3012 24.3183 22.5236C24.2355 22.931 24.4991 23.3286 24.9065 23.4115C25.3147 23.4928 25.7116 23.2315 25.7945 22.8241C25.9007 22.3006 26.3661 21.9211 26.9016 21.9211C27.437 21.9211 27.9025 22.3006 28.0086 22.8241C28.0809 23.181 28.395 23.4273 28.746 23.4273C28.7957 23.4273 28.8461 23.422 28.8966 23.4115C29.304 23.3294 29.5676 22.931 29.4848 22.5236ZM16.7344 12.5062H15.9813C14.3199 12.5062 12.9688 13.8574 12.9688 15.5187C12.9688 15.9352 13.3062 16.2719 13.7219 16.2719C14.1376 16.2719 14.475 15.9352 14.475 15.5187C14.475 14.6881 15.1506 14.0125 15.9813 14.0125H16.7344C17.1501 14.0125 17.4875 13.6759 17.4875 13.2594C17.4875 12.8429 17.1501 12.5062 16.7344 12.5062ZM25.0187 14.0125C25.8494 14.0125 26.525 14.6881 26.525 15.5187C26.525 15.9352 26.8624 16.2719 27.2781 16.2719C27.6938 16.2719 28.0312 15.9352 28.0312 15.5187C28.0312 13.8574 26.6801 12.5062 25.0187 12.5062H24.2656C23.8499 12.5062 23.5125 12.8429 23.5125 13.2594C23.5125 13.6759 23.8499 14.0125 24.2656 14.0125H25.0187ZM27.2781 23.8031C26.8624 23.8031 26.525 24.1398 26.525 24.5562C26.525 25.3869 25.8494 26.0625 25.0187 26.0625C24.603 26.0625 24.2656 26.3991 24.2656 26.8156C24.2656 27.2321 24.603 27.5687 25.0187 27.5687C26.6801 27.5687 28.0312 26.2176 28.0312 24.5562C28.0312 24.1398 27.6938 23.8031 27.2781 23.8031ZM15.9813 26.0625C15.1506 26.0625 14.475 25.3869 14.475 24.5562C14.475 24.1398 14.1376 23.8031 13.7219 23.8031C13.3062 23.8031 12.9688 24.1398 12.9688 24.5562C12.9688 26.2176 14.3199 27.5687 15.9813 27.5687C16.397 27.5687 16.7344 27.2321 16.7344 26.8156C16.7344 26.3991 16.397 26.0625 15.9813 26.0625Z" fill="#FAFAFA"/>
</svg>
