<svg width="41" height="40" viewBox="0 0 41 40" fill="none" xmlns="http://www.w3.org/2000/svg">
<rect x="0.5" width="40" height="40" rx="8" fill="#101828"/>
<path d="M29.5 19.25C29.5 18.074 28.936 16.97 28 16.2657V16.25C28 14.8273 27.0048 13.6332 25.6735 13.3265C25.3668 11.996 24.172 11 22.75 11C21.8545 11 21.0498 11.3945 20.5 12.0178C19.9502 11.3937 19.1455 11 18.25 11C16.828 11 15.6333 11.9952 15.3265 13.3265C13.996 13.6332 13 14.8273 13 16.25V16.2657C12.064 16.97 11.5 18.0732 11.5 19.25C11.5 19.9145 11.6762 20.5527 12.0145 21.125C11.677 21.6973 11.5 22.3355 11.5 23C11.5 24.2645 12.1435 25.433 13.2002 26.1245C13.7395 27.833 15.3092 29 17.125 29C18.5185 29 19.753 28.3055 20.5 27.2435C21.247 28.3048 22.4815 29 23.875 29C25.6915 29 27.2612 27.833 27.7997 26.1245C28.8557 25.433 29.5 24.2645 29.5 23C29.5 22.3355 29.3237 21.6973 28.9855 21.125C29.323 20.5527 29.5 19.9145 29.5 19.25ZM17.125 27.5C15.8995 27.5 14.8503 26.6637 14.5742 25.466C14.5255 25.2552 14.3882 25.076 14.1977 24.974C13.459 24.578 13 23.822 13 23.0007C13 22.4945 13.1755 22.0092 13.5092 21.5968C13.7312 21.3215 13.7312 20.9292 13.5092 20.654C13.1762 20.2422 13 19.757 13 19.25C13 18.4475 13.4432 17.6998 14.1572 17.2978C14.4348 17.1418 14.5833 16.8275 14.5278 16.514C14.5128 16.4278 14.5 16.3408 14.5 16.25C14.5 15.4227 15.1727 14.75 16 14.75C16.4148 14.75 16.75 14.414 16.75 14C16.75 13.1727 17.4227 12.5 18.25 12.5C19.0773 12.5 19.75 13.1727 19.75 14V17H18.049C17.7895 16.5515 17.305 16.25 16.75 16.25C15.9212 16.25 15.25 16.9212 15.25 17.75C15.25 18.5788 15.9212 19.25 16.75 19.25C17.305 19.25 17.7895 18.9485 18.049 18.5H19.75V22.25H18.049C17.7895 21.8015 17.305 21.5 16.75 21.5C15.9212 21.5 15.25 22.1713 15.25 23C15.25 23.8287 15.9212 24.5 16.75 24.5C17.305 24.5 17.7895 24.1985 18.049 23.75H19.75V24.875C19.75 26.3225 18.5725 27.5 17.125 27.5ZM27.4907 21.596C27.8237 22.0078 28 22.493 28 23C28 23.822 27.5417 24.578 26.8022 24.9733C26.6117 25.0753 26.4745 25.2545 26.4257 25.4653C26.1497 26.663 25.0997 27.4993 23.875 27.4993C22.4275 27.4993 21.25 26.3218 21.25 24.8743V21.4992H22.75C23.9905 21.4992 25 20.4897 25 19.2492V19.0483C25.4485 18.7888 25.75 18.3042 25.75 17.7492C25.75 16.9205 25.0787 16.2492 24.25 16.2492C23.4213 16.2492 22.75 16.9205 22.75 17.7492C22.75 18.3042 23.0515 18.7888 23.5 19.0483V19.2492C23.5 19.6625 23.164 19.9992 22.75 19.9992H21.25V14C21.25 13.1727 21.9227 12.5 22.75 12.5C23.5773 12.5 24.25 13.1727 24.25 14C24.25 14.414 24.5852 14.75 25 14.75C25.8273 14.75 26.5 15.4227 26.5 16.25C26.5 16.3408 26.4865 16.4278 26.4722 16.514C26.4167 16.8275 26.5653 17.1418 26.8428 17.2978C27.5568 17.699 28 18.4475 28 19.25C28 19.7563 27.8245 20.2415 27.4907 20.654C27.2687 20.9292 27.2687 21.3208 27.4907 21.596Z" fill="#FAFAFA"/>
</svg>
