<svg width="41" height="40" viewBox="0 0 41 40" fill="none" xmlns="http://www.w3.org/2000/svg">
<rect x="0.5" width="40" height="40" rx="8" fill="#101828"/>
<path d="M28.375 13.982H26.0605C25.9122 13.982 25.7672 14.026 25.6439 14.1084C25.5206 14.1909 25.4245 14.308 25.3677 14.445C25.311 14.582 25.2961 14.7328 25.3251 14.8783C25.354 15.0237 25.4254 15.1574 25.5303 15.2622L26.3447 16.0767L23.6553 18.7655C23.5124 18.9021 23.3223 18.9783 23.1246 18.9783C22.927 18.9783 22.7369 18.9021 22.594 18.7655L22.4665 18.6373C22.038 18.2278 21.4681 17.9993 20.8754 17.9993C20.2827 17.9993 19.7128 18.2278 19.2842 18.6373L15.4592 22.4623C15.3183 22.6036 15.2393 22.7951 15.2396 22.9947C15.2399 23.1943 15.3194 23.3856 15.4608 23.5265C15.6021 23.6674 15.7936 23.7464 15.9932 23.7462C16.1928 23.7459 16.3841 23.6663 16.525 23.525L20.35 19.7C20.4928 19.5633 20.6829 19.4869 20.8806 19.4869C21.0783 19.4869 21.2684 19.5633 21.4113 19.7L21.5387 19.8283C21.9675 20.2374 22.5373 20.4656 23.1299 20.4656C23.7225 20.4656 24.2923 20.2374 24.721 19.8283L27.4105 17.1388L28.225 17.9533C28.3302 18.0564 28.4635 18.1263 28.6083 18.1541C28.753 18.182 28.9027 18.1666 29.0387 18.1099C29.1747 18.0531 29.291 17.9576 29.373 17.8352C29.4551 17.7127 29.4992 17.5689 29.5 17.4215V15.107C29.5 14.8086 29.3815 14.5225 29.1705 14.3115C28.9595 14.1005 28.6734 13.982 28.375 13.982Z" fill="#FAFAFA"/>
<path d="M28.75 27.482H15.25C14.6533 27.482 14.081 27.2449 13.659 26.823C13.2371 26.401 13 25.8287 13 25.232V11.75C13 11.5511 12.921 11.3603 12.7803 11.2197C12.6397 11.079 12.4489 11 12.25 11C12.0511 11 11.8603 11.079 11.7197 11.2197C11.579 11.3603 11.5 11.5511 11.5 11.75V25.232C11.5012 26.2262 11.8967 27.1793 12.5997 27.8823C13.3027 28.5853 14.2558 28.9808 15.25 28.982H28.75C28.9489 28.982 29.1397 28.903 29.2803 28.7623C29.421 28.6217 29.5 28.4309 29.5 28.232C29.5 28.0331 29.421 27.8423 29.2803 27.7017C29.1397 27.561 28.9489 27.482 28.75 27.482Z" fill="#FAFAFA"/>
</svg>
