<svg width="41" height="40" viewBox="0 0 41 40" fill="none" xmlns="http://www.w3.org/2000/svg">
<rect x="0.5" width="40" height="40" rx="8" fill="#101828"/>
<path d="M22.8182 23C27.7458 22.973 29.5 20.363 29.5 18.125C29.4995 17.5251 29.2936 16.9434 28.9164 16.4768C28.5392 16.0102 28.0135 15.6869 27.427 15.5608C27.529 15.2705 27.6175 15.0043 27.6768 14.8025C27.8077 14.3637 27.8334 13.9003 27.7518 13.4497C27.6703 12.9991 27.4837 12.5741 27.2073 12.209C26.9286 11.8324 26.5651 11.5268 26.1464 11.3167C25.7276 11.1067 25.2652 10.9982 24.7968 11H16.2032C15.7348 10.9982 15.2724 11.1067 14.8536 11.3167C14.4349 11.5268 14.0714 11.8324 13.7927 12.209C13.5163 12.5741 13.3297 12.9991 13.2482 13.4497C13.1666 13.9003 13.1923 14.3637 13.3233 14.8025C13.3825 15.0043 13.4732 15.2705 13.573 15.5608C12.9865 15.6869 12.4608 16.0102 12.0836 16.4768C11.7064 16.9434 11.5005 17.5251 11.5 18.125C11.5 20.363 13.2543 22.973 18.1818 23C18.2256 23.2277 18.2484 23.4589 18.25 23.6908V26C18.2629 26.2003 18.2329 26.4011 18.1621 26.5889C18.0913 26.7768 17.9812 26.9474 17.8393 27.0893C17.6973 27.2312 17.5268 27.3413 17.3389 27.4121C17.1511 27.4829 16.9503 27.5129 16.75 27.5H16C15.8011 27.5 15.6103 27.579 15.4697 27.7197C15.329 27.8603 15.25 28.0511 15.25 28.25C15.25 28.4489 15.329 28.6397 15.4697 28.7804C15.6103 28.921 15.8011 29 16 29H25C25.1989 29 25.3897 28.921 25.5303 28.7804C25.671 28.6397 25.75 28.4489 25.75 28.25C25.75 28.0511 25.671 27.8603 25.5303 27.7197C25.3897 27.579 25.1989 27.5 25 27.5H24.256C24.0552 27.5136 23.8539 27.4841 23.6655 27.4136C23.477 27.3431 23.3058 27.2331 23.1632 27.0911C23.0207 26.9491 22.9101 26.7784 22.8388 26.5902C22.7675 26.402 22.7373 26.2008 22.75 26V23.69C22.7516 23.4584 22.7745 23.2275 22.8182 23ZM26.875 17C27.1734 17 27.4595 17.1185 27.6705 17.3295C27.8815 17.5405 28 17.8267 28 18.125C28 19.6505 26.7933 21.275 23.473 21.4775C23.6391 21.2509 23.8308 21.0442 24.0445 20.8618C25.24 19.7848 26.1928 18.4658 26.8397 16.9925C26.8517 16.9933 26.8623 17 26.875 17ZM13 18.125C13 17.8267 13.1185 17.5405 13.3295 17.3295C13.5405 17.1185 13.8266 17 14.125 17C14.1377 17 14.1482 16.9933 14.1602 16.9925C14.8072 18.4658 15.76 19.7848 16.9555 20.8618C17.1692 21.0442 17.3609 21.2509 17.527 21.4775C14.2068 21.275 13 19.6505 13 18.125ZM19.3847 27.5C19.6327 27.0395 19.7585 26.523 19.75 26V23.6908C19.7526 22.9362 19.5909 22.19 19.276 21.5042C18.9611 20.8184 18.5007 20.2094 17.9268 19.7195C16.4016 18.2619 15.3067 16.413 14.7617 14.375C14.6977 14.1599 14.6854 13.9327 14.7258 13.7119C14.7662 13.4911 14.8582 13.283 14.9942 13.1045C15.1342 12.9159 15.3165 12.7629 15.5266 12.6579C15.7366 12.5529 15.9684 12.4988 16.2032 12.5H24.7968C25.0318 12.4991 25.2638 12.5537 25.4739 12.6592C25.6839 12.7648 25.8662 12.9184 26.0057 13.1075C26.1418 13.286 26.2338 13.4941 26.2742 13.7149C26.3146 13.9357 26.3023 14.1629 26.2382 14.378C25.6928 16.415 24.5979 18.2628 23.0732 19.7195C22.4993 20.2093 22.0389 20.8182 21.724 21.5038C21.4092 22.1895 21.2474 22.9355 21.25 23.69V26C21.2415 26.523 21.3673 27.0395 21.6153 27.5H19.3847Z" fill="#FAFAFA"/>
</svg>
