<svg width="52" height="52" viewBox="0 0 52 52" fill="none" xmlns="http://www.w3.org/2000/svg">
<path d="M24.1429 13.5245V16.4049C24.1429 16.9175 24.5589 17.3335 25.0714 17.3335C25.584 17.3335 26 16.9175 26 16.4049V13.5245C28.1171 13.0936 29.7143 11.2179 29.7143 8.97635C29.7143 6.41535 27.6324 4.3335 25.0714 4.3335C22.5104 4.3335 20.4286 6.41535 20.4286 8.97635C20.4286 11.2198 22.0257 13.0936 24.1429 13.5245ZM25.0714 6.19064C26.6073 6.19064 27.8571 7.4405 27.8571 8.97635C27.8571 10.5122 26.6073 11.7621 25.0714 11.7621C23.5356 11.7621 22.2857 10.5122 22.2857 8.97635C22.2857 7.4405 23.5356 6.19064 25.0714 6.19064ZM45.5 47.9764C45.5 48.4889 45.084 48.9049 44.5714 48.9049C44.0589 48.9049 43.6429 48.4889 43.6429 47.9764C43.6429 44.9362 41.7969 42.3566 38.8217 41.2405L28.4867 37.7138C28.1097 37.5856 27.8571 37.2309 27.8571 36.8335V25.8894C27.8571 24.4241 26.8636 23.1575 25.5469 22.9421C24.7093 22.8121 23.9014 23.0275 23.2681 23.5661C22.6423 24.0972 22.2857 24.8716 22.2857 25.6906V41.3352C22.2857 42.1171 21.8493 42.8135 21.1436 43.1534C20.4397 43.4876 19.6226 43.3985 19.0153 42.9119C19.0153 42.9119 15.8284 40.3732 15.8229 40.3658C14.6974 39.3221 12.9387 39.3834 11.895 40.5014C10.8457 41.6231 10.9033 43.3929 12.0139 44.4348L15.0466 47.3152C15.6501 47.8891 15.2453 48.9049 14.4114 48.9049C14.1756 48.9049 13.949 48.8158 13.7781 48.6542L10.7324 45.7794C8.87529 44.0392 8.78614 41.1031 10.5356 39.2348C12.259 37.3888 15.145 37.2774 17.017 38.9581C17.0226 38.9618 20.1704 41.4596 20.1704 41.4596L20.4267 41.3371V25.6925C20.4267 24.3294 21.0229 23.0386 22.0629 22.1546C23.1047 21.2706 24.4901 20.8918 25.8421 21.1128C28.0484 21.4712 29.7124 23.5271 29.7124 25.8912V36.1705L39.4457 39.4929C43.1897 40.8969 45.5 44.1432 45.5 47.9764ZM32.643 21.5956C32.8231 21.5956 33.0014 21.5455 33.1593 21.4378L35.7407 19.7051C36.5801 20.5334 37.7297 21.0478 39 21.0478C41.561 21.0478 43.6429 18.9659 43.6429 16.4049C43.6429 13.8439 41.561 11.7621 39 11.7621C36.439 11.7621 34.3571 13.8439 34.3571 16.4049C34.3571 17.0289 34.4853 17.6214 34.7081 18.1636L32.1267 19.8964C31.7014 20.1805 31.5863 20.7581 31.8723 21.1834C32.0524 21.4526 32.3459 21.5956 32.643 21.5956ZM39 13.6192C40.5359 13.6192 41.7857 14.8691 41.7857 16.4049C41.7857 17.9408 40.5359 19.1906 39 19.1906C37.3397 19.1906 36.2143 18.0652 36.2143 16.4049C36.2143 14.8691 37.4641 13.6192 39 13.6192ZM14.4021 19.7051L16.9836 21.4378C17.1414 21.5455 17.3216 21.5956 17.4999 21.5956C17.797 21.5956 18.0904 21.4526 18.2706 21.1834C18.5566 20.7581 18.4433 20.1805 18.0161 19.8964L15.4347 18.1636C15.6576 17.6195 15.7857 17.0271 15.7857 16.4049C15.7857 13.8439 13.7039 11.7621 11.1429 11.7621C8.58186 11.7621 6.5 13.8439 6.5 16.4049C6.5 18.9659 8.58186 21.0478 11.1429 21.0478C12.4131 21.0478 13.5627 20.5334 14.4021 19.7051ZM8.35714 16.4049C8.35714 14.8691 9.607 13.6192 11.1429 13.6192C12.6787 13.6192 13.9286 14.8691 13.9286 16.4049C13.9286 17.7792 13.2136 19.1906 11.1429 19.1906C9.607 19.1906 8.35714 17.9408 8.35714 16.4049Z" fill="#A1A1AA"/>
</svg>
