<svg width="52" height="52" viewBox="0 0 52 52" fill="none" xmlns="http://www.w3.org/2000/svg">
<path d="M28.4375 43.8734H13.8125C10.6762 43.8734 8.125 41.3221 8.125 38.1859V13.8109C8.125 10.6746 10.6762 8.12338 13.8125 8.12338H22.7744C23.3171 8.12338 23.8518 8.17213 24.375 8.26638V17.0609C24.375 19.3018 26.1966 21.1234 28.4375 21.1234C28.4375 21.1234 37.9275 21.1396 38.0851 21.0974C38.5206 20.9869 38.7823 20.5433 38.6701 20.1094C38.2005 18.2731 37.245 16.5945 35.9044 15.2555L30.2429 9.594C28.2474 7.5985 25.5954 6.5 22.7728 6.5H13.8109C9.78087 6.49838 6.5 9.77925 6.5 13.8109V38.1859C6.5 42.2175 9.78088 45.4984 13.8125 45.4984H28.4375C28.886 45.4984 29.25 45.1344 29.25 44.6859C29.25 44.2374 28.886 43.8734 28.4375 43.8734ZM26 8.72138C27.1473 9.165 28.1986 9.8475 29.094 10.7429L34.7555 16.4044C35.6379 17.2867 36.322 18.343 36.7705 19.4984H28.4359C27.092 19.4984 25.9984 18.4047 25.9984 17.0609L26 8.72138ZM24.375 30.0609C24.375 30.5094 24.011 30.8734 23.5625 30.8734H13.8125C13.364 30.8734 13 30.5094 13 30.0609C13 29.6124 13.364 29.2484 13.8125 29.2484H23.5625C24.011 29.2484 24.375 29.6124 24.375 30.0609ZM24.375 36.5609C24.375 37.0094 24.011 37.3734 23.5625 37.3734H13.8125C13.364 37.3734 13 37.0094 13 36.5609C13 36.1124 13.364 35.7484 13.8125 35.7484H23.5625C24.011 35.7484 24.375 36.1124 24.375 36.5609ZM43.706 25.8862L36.8176 23.6031C36.6519 23.5495 36.4715 23.5495 36.3074 23.6031L29.4174 25.8862C28.3465 26.2437 27.625 27.2399 27.625 28.366V34.7311C27.625 40.6022 33.9105 44.2032 35.8361 45.1685C35.8361 45.1685 36.2326 45.4366 36.5641 45.4366C36.8956 45.4366 37.245 45.2254 37.245 45.2254C39.182 44.447 45.5 41.3855 45.5 34.7311V28.366C45.5 27.2399 44.7801 26.2421 43.706 25.8862ZM43.875 34.7311C43.875 40.3666 38.2996 43.0495 36.5999 43.7336C34.8839 42.8756 29.25 39.6711 29.25 34.7311V28.366C29.25 27.9402 29.523 27.5632 29.9293 27.4284L36.5625 25.2281L43.1941 27.4284C43.602 27.5632 43.875 27.9402 43.875 28.366V34.7311ZM24.375 23.5609C24.375 24.0094 24.011 24.3734 23.5625 24.3734H13.8125C13.364 24.3734 13 24.0094 13 23.5609C13 23.1124 13.364 22.7484 13.8125 22.7484H23.5625C24.011 22.7484 24.375 23.1124 24.375 23.5609Z" fill="#A1A1AA"/>
</svg>
