<svg width="52" height="52" viewBox="0 0 52 52" fill="none" xmlns="http://www.w3.org/2000/svg">
<path d="M22.7493 44.6859C22.7493 45.1344 22.3853 45.4984 21.9369 45.4984H7.31247C6.86398 45.4984 6.5 45.1344 6.5 44.6859C6.5 44.2374 6.86398 43.8734 7.31247 43.8734H21.9369C22.3853 43.8734 22.7493 44.2374 22.7493 44.6859ZM7.31247 38.9986H18.687C19.1355 38.9986 19.4995 38.6347 19.4995 38.1862C19.4995 37.7377 19.1355 37.3737 18.687 37.3737H7.31247C6.86398 37.3737 6.5 37.7377 6.5 38.1862C6.5 38.6347 6.86398 38.9986 7.31247 38.9986ZM7.31247 32.4989H15.4371C15.8856 32.4989 16.2496 32.1349 16.2496 31.6864C16.2496 31.238 15.8856 30.874 15.4371 30.874H7.31247C6.86398 30.874 6.5 31.238 6.5 31.6864C6.5 32.1349 6.86398 32.4989 7.31247 32.4989ZM25.9992 6.5C15.247 6.5 6.5 15.247 6.5 25.9992C6.5 26.2836 6.50487 26.5663 6.51787 26.8474C6.53737 27.2959 6.92736 27.6501 7.36446 27.6241C7.81295 27.6046 8.16068 27.2244 8.14118 26.7775C8.12981 26.5192 8.12493 26.2608 8.12493 26.0008C8.12493 16.144 16.144 8.12493 25.9992 8.12493C35.8544 8.12493 43.8734 16.144 43.8734 25.9992C43.8734 35.6025 36.3646 43.4461 26.7775 43.8572C26.3291 43.8767 25.9813 44.2553 26.0008 44.7038C26.0187 45.1409 26.3794 45.4821 26.8117 45.4821C26.823 45.4821 26.836 45.4821 26.8474 45.4821C37.3071 45.0353 45.5 36.4768 45.5 26.0008C45.4984 15.247 36.7514 6.5 25.9992 6.5ZM26.8117 16.2496C26.3632 16.2496 25.9992 16.6136 25.9992 17.0621V25.9911C25.9992 26.2705 26.1438 26.5322 26.3794 26.68L32.8792 30.7505C33.014 30.835 33.1635 30.874 33.3114 30.874C33.5811 30.874 33.846 30.7391 34.0004 30.4937C34.2376 30.1135 34.1222 29.6114 33.7436 29.3742L27.6241 25.5426V17.0637C27.6241 16.6152 27.2601 16.2496 26.8117 16.2496Z" fill="#A1A1AA"/>
</svg>
