<svg width="52" height="52" viewBox="0 0 52 52" fill="none" xmlns="http://www.w3.org/2000/svg">
<path d="M31.6875 26.5415C28.5513 26.5415 26 29.0928 26 32.229C26 33.7728 26.6224 35.1703 27.625 36.1973V42.876C27.625 43.5 27.9971 44.059 28.574 44.2979C29.1558 44.54 29.8106 44.4068 30.2819 43.9355L31.6875 42.3788L33.1224 43.9664C33.4181 44.2605 33.8097 44.4165 34.2095 44.4165C34.4077 44.4165 34.6093 44.3775 34.801 44.2979C35.3763 44.059 35.75 43.5 35.75 42.876V36.1973C36.7526 35.1719 37.375 33.7728 37.375 32.229C37.375 29.0928 34.8238 26.5415 31.6875 26.5415ZM34.125 42.6518L32.2904 40.6205C31.9832 40.2809 31.3918 40.2809 31.0846 40.6205L29.25 42.6518V37.3461C29.991 37.702 30.8116 37.9165 31.6875 37.9165C32.5634 37.9165 33.384 37.7004 34.125 37.3461V42.6518ZM31.6875 36.2915C29.4466 36.2915 27.625 34.4683 27.625 32.229C27.625 29.9898 29.4466 28.1665 31.6875 28.1665C33.9284 28.1665 35.75 29.9898 35.75 32.229C35.75 34.4683 33.9284 36.2915 31.6875 36.2915ZM37.375 22.479C37.375 22.9275 37.011 23.2915 36.5625 23.2915H15.4375C14.989 23.2915 14.625 22.9275 14.625 22.479C14.625 22.0305 14.989 21.6665 15.4375 21.6665H36.5625C37.011 21.6665 37.375 22.0305 37.375 22.479ZM21.9375 28.1665C22.386 28.1665 22.75 28.5305 22.75 28.979C22.75 29.4275 22.386 29.7915 21.9375 29.7915H15.4375C14.989 29.7915 14.625 29.4275 14.625 28.979C14.625 28.5305 14.989 28.1665 15.4375 28.1665H21.9375ZM45.5 15.979V33.854C45.5 37.1934 43.2445 40.1054 40.0156 40.9358C39.5769 41.0463 39.1381 40.7846 39.026 40.3508C38.9155 39.9153 39.1771 39.4733 39.6094 39.3611C42.1216 38.716 43.875 36.4491 43.875 33.8524V15.979C43.875 12.8428 41.3237 10.2915 38.1875 10.2915H13.8125C10.6762 10.2915 8.125 12.8428 8.125 15.979V33.854C8.125 36.9903 10.6762 39.5415 13.8125 39.5415H23.5625C24.011 39.5415 24.375 39.9055 24.375 40.354C24.375 40.8025 24.011 41.1665 23.5625 41.1665H13.8125C9.78088 41.1665 6.5 37.8856 6.5 33.854V15.979C6.5 11.9474 9.78088 8.6665 13.8125 8.6665H38.1875C42.2191 8.6665 45.5 11.9474 45.5 15.979ZM37.375 15.979C37.375 16.4275 37.011 16.7915 36.5625 16.7915H15.4375C14.989 16.7915 14.625 16.4275 14.625 15.979C14.625 15.5305 14.989 15.1665 15.4375 15.1665H36.5625C37.011 15.1665 37.375 15.5305 37.375 15.979Z" fill="#A1A1AA"/>
</svg>
