<svg width="52" height="52" viewBox="0 0 52 52" fill="none" xmlns="http://www.w3.org/2000/svg">
<path d="M21.1775 22.5081C21.9663 22.9565 22.4556 23.8695 22.4556 24.8887V25.9541C22.4556 27.7746 23.7514 29.1484 25.4691 29.1484H26.5327C28.1954 29.1484 29.5462 27.7959 29.5462 26.1349V24.8533C29.5462 23.8535 30.0266 22.9601 30.8012 22.524C33.8537 20.7957 35.7504 17.5624 35.7504 14.0809C35.7504 11.1277 34.4334 8.36589 32.1378 6.50461C29.8422 4.64156 26.8358 3.9325 23.8861 4.55293C20.1423 5.34353 17.1465 8.41021 16.4321 12.1859C15.6398 16.3658 17.501 20.4199 21.1775 22.5081ZM27.7735 24.8515V26.1331C27.7735 26.8174 27.2169 27.374 26.5327 27.374H25.4691C24.7494 27.374 24.2282 26.7766 24.2282 25.9523V24.887C24.2282 24.5236 24.1733 24.1708 24.0953 23.8269H27.9029C27.8303 24.1584 27.7735 24.5005 27.7735 24.8515ZM18.1729 12.5139C18.8412 8.83387 22.2588 6.04018 25.9814 6.10577C30.273 6.01004 34.0682 9.78224 33.9778 14.0791C33.9778 16.9225 32.4267 19.5655 29.9291 20.9783C29.4558 21.2459 29.0764 21.6288 28.7449 22.056H26.8854V15.7259C28.4099 15.3288 29.5444 13.9533 29.5444 12.3065C29.5444 11.8172 29.1473 11.4202 28.6581 11.4202C28.1688 11.4202 27.7718 11.8172 27.7718 12.3065C27.7718 13.285 26.9758 14.0791 25.9991 14.0791C25.0224 14.0791 24.2265 13.285 24.2265 12.3065C24.2265 11.8172 23.8294 11.4202 23.3401 11.4202C22.8509 11.4202 22.4538 11.8172 22.4538 12.3065C22.4538 13.9533 23.5883 15.3288 25.1128 15.7259V22.056H23.2427C22.9112 21.6253 22.5283 21.2371 22.0532 20.9676C19.045 19.2588 17.5241 15.9404 18.1729 12.5139ZM45.5 15.8518V33.5782C45.5 37.9762 41.921 41.5552 37.5231 41.5552H18.2916L11.0415 46.3803C10.5523 46.7065 9.98857 46.8696 9.42309 46.8696C8.9498 46.8696 8.4765 46.7561 8.0422 46.5239C7.09029 46.0134 6.5 45.026 6.5 43.9482V15.8518C6.5 12.2108 8.96043 9.03241 12.4827 8.12658C12.956 8.00782 13.4399 8.28967 13.5622 8.76296C13.6845 9.23626 13.3991 9.72019 12.9241 9.84251C10.1853 10.5462 8.27087 13.0191 8.27087 15.8518V43.9482C8.27087 44.379 8.49777 44.7566 8.87712 44.9604C9.25824 45.166 9.69963 45.1448 10.0577 44.9055L17.5294 39.9314C17.6748 39.8339 17.8449 39.7825 18.0204 39.7825H37.5195C40.9408 39.7825 43.7238 36.9995 43.7238 33.5782V15.8518C43.7238 13.0191 41.8111 10.548 39.0706 9.84251C38.5955 9.72019 38.3101 9.23626 38.4325 8.76296C38.5548 8.28789 39.044 8.00427 39.512 8.12658C43.0343 9.03418 45.4947 12.2125 45.4947 15.8518H45.5Z" fill="#A1A1AA"/>
</svg>
