<svg width="52" height="52" viewBox="0 0 52 52" fill="none" xmlns="http://www.w3.org/2000/svg">
<path d="M44.6875 37.3783H35.9531C35.8166 37.3783 35.6931 37.4433 35.5745 37.5083L28.9153 31.5282C27.9451 30.6556 26.4664 30.7011 25.5515 31.6306L23.504 33.709C23.2001 34.0161 22.6639 34.0161 22.3551 33.709C22.2024 33.5546 22.1179 33.3515 22.1179 33.1338C22.1179 32.916 22.2024 32.7129 22.3551 32.5585L28.0995 26.8775C28.7008 26.312 29.4873 26 30.3128 26C30.9108 26 32.1913 26.3413 33.8244 26.936C35.0789 27.3926 36.4163 27.625 37.7975 27.625H44.6875C45.136 27.625 45.5 27.261 45.5 26.8125C45.5 26.364 45.136 26 44.6875 26H37.7975C36.6064 26 35.4559 25.8018 34.3785 25.4101C33.8878 25.2314 33.436 25.0786 33.0168 24.9454C35.2544 22.9531 36.5609 20.1045 36.5609 17.0625C36.5609 11.2385 31.8224 6.5 25.9984 6.5C20.1744 6.5 15.4359 11.2385 15.4359 17.0625C15.4359 20.0541 16.7034 22.854 18.8728 24.8398C18.5282 24.9551 18.1626 25.0884 17.7694 25.246C16.5246 25.7465 15.2474 26 13.9718 26H7.3125C6.864 26 6.5 26.364 6.5 26.8125C6.5 27.261 6.864 27.625 7.3125 27.625H13.9718C15.4554 27.625 16.9374 27.3325 18.3755 26.754C20.007 26.0975 20.774 26 21.1234 26C21.9294 26 22.7013 26.299 23.2976 26.8418L24.6123 28.0394L21.2046 31.408C20.7448 31.8679 20.4912 32.4805 20.4912 33.1321C20.4912 33.7838 20.7448 34.3948 21.2046 34.8563C22.126 35.7776 23.7299 35.7793 24.6561 34.853L26.7085 32.7698C27.0124 32.461 27.5048 32.4448 27.8298 32.7356L34.242 38.493L28.405 43.0479C27.0368 44.1139 24.9616 44.1139 23.5934 43.0479L16.5458 37.5473C16.4028 37.4351 16.2273 37.375 16.0452 37.375H7.3125C6.864 37.375 6.5 37.739 6.5 38.1875C6.5 38.636 6.864 39 7.3125 39H15.7674L22.594 44.3284C23.5625 45.084 24.7715 45.5 26 45.5C27.2285 45.5 28.4375 45.084 29.406 44.3284L36.2326 39H44.6875C45.136 39 45.5 38.636 45.5 38.1875C45.5 37.739 45.136 37.375 44.6875 37.375V37.3783ZM25.7595 26.8873L24.3945 25.6441C23.4991 24.8284 22.3373 24.3783 21.0876 24.3783C21.0324 24.3783 20.9609 24.3913 20.9024 24.3945C18.499 22.7191 17.0641 20.0005 17.0641 17.0658C17.0641 12.1371 21.073 8.12825 26.0016 8.12825C30.9303 8.12825 34.9391 12.1371 34.9391 17.0658C34.9391 20.0265 33.4799 22.7744 31.0343 24.4449C30.7596 24.401 30.5191 24.3783 30.3128 24.3783C29.0713 24.3783 27.8899 24.8479 27.0026 25.6831L25.7692 26.9019C25.7692 26.9019 25.7644 26.8921 25.7595 26.8873ZM28.041 22.7533H26.8125V23.5658C26.8125 24.0143 26.4485 24.3783 26 24.3783C25.5515 24.3783 25.1875 24.0143 25.1875 23.5658V22.7533H23.9574C22.6298 22.7533 21.4744 21.8302 21.1494 20.5107C21.0421 20.0752 21.3086 19.6349 21.7441 19.5276C22.1796 19.4171 22.62 19.6869 22.7273 20.1224C22.8735 20.7155 23.3789 21.1299 23.9574 21.1299H28.041C28.743 21.1299 29.3134 20.5237 29.3134 19.7811C29.3134 19.1782 28.9315 18.6436 28.3839 18.4827L23.3561 17.2201C22.0903 16.8464 21.229 15.6715 21.229 14.3536C21.229 12.714 22.529 11.3799 24.1264 11.3799H25.1875V10.5674C25.1875 10.1189 25.5515 9.75487 26 9.75487C26.4485 9.75487 26.8125 10.1189 26.8125 10.5674V11.3799H28.0426C29.3703 11.3799 30.5256 12.3029 30.8506 13.6224C30.9579 14.0579 30.6914 14.4983 30.2559 14.6055C29.8236 14.7176 29.38 14.4462 29.2728 14.0107C29.1265 13.4176 28.6211 13.0033 28.0426 13.0033H24.1248C23.4228 13.0033 22.8524 13.6094 22.8524 14.352C22.8524 14.9549 23.2343 15.4895 23.7819 15.6504L28.8096 16.913C30.0755 17.2867 30.9368 18.4616 30.9368 19.7795C30.9368 21.4191 29.6384 22.7533 28.041 22.7533Z" fill="#A1A1AA"/>
</svg>
